HIERARCHY
ROOT joint_Root
{
	OFFSET 0.0 0.0 0.0
	CHANNELS 6 Xposition Yposition Zposition Zrotation Xrotation Yrotation 
	JOINT Hips
	{
		OFFSET -0.726466 93.3139 -2.00062
		CHANNELS 6 Xposition Yposition Zposition Zrotation Xrotation Yrotation 
		JOINT Spine
		{
			OFFSET 15.7357 0.0 0.0
			CHANNELS 6 Xposition Yposition Zposition Zrotation Xrotation Yrotation 
			JOINT Chest
			{
				OFFSET 8.98455 -0.406207 0.0
				CHANNELS 6 Xposition Yposition Zposition Zrotation Xrotation Yrotation 
				JOINT Neck
				{
					OFFSET 16.3773 0.0 0.0
					CHANNELS 6 Xposition Yposition Zposition Zrotation Xrotation Yrotation 
					JOINT Head
					{
						OFFSET 6.45672 0.0 0.0
						CHANNELS 6 Xposition Yposition Zposition Zrotation Xrotation Yrotation 
						End Site
						{
							OFFSET 0.0 0.0 0.0
						}
					}
				}
				JOINT Shoulder_L
				{
					OFFSET 12.9942 -0.242716 4.98039
					CHANNELS 6 Xposition Yposition Zposition Zrotation Xrotation Yrotation 
					JOINT UpperArm_L
					{
						OFFSET 5.34809 0.0 0.0
						CHANNELS 6 Xposition Yposition Zposition Zrotation Xrotation Yrotation 
						JOINT LowerArm_L
						{
							OFFSET 24.3286 1.87007e-05 0.0
							CHANNELS 6 Xposition Yposition Zposition Zrotation Xrotation Yrotation 
							JOINT Hand_L
							{
								OFFSET 22.2916 0.0 0.0
								CHANNELS 6 Xposition Yposition Zposition Zrotation Xrotation Yrotation 
								End Site
								{
									OFFSET 0.0 0.0 0.0
								}
							}
						}
					}
				}
				JOINT Shoulder_R
				{
					OFFSET 12.9945 -0.242716 -4.98039
					CHANNELS 6 Xposition Yposition Zposition Zrotation Xrotation Yrotation 
					JOINT UpperArm_R
					{
						OFFSET -5.34813 0.0 0.0
						CHANNELS 6 Xposition Yposition Zposition Zrotation Xrotation Yrotation 
						JOINT LowerArm_R
						{
							OFFSET -24.3289 0.000322201 0.0
							CHANNELS 6 Xposition Yposition Zposition Zrotation Xrotation Yrotation 
							JOINT Hand_R
							{
								OFFSET -22.2915 -0.000108084 0.0
								CHANNELS 6 Xposition Yposition Zposition Zrotation Xrotation Yrotation 
								End Site
								{
									OFFSET 0.0 0.0 0.0
								}
							}
						}
					}
				}
			}
		}
		JOINT UpperLeg_L
		{
			OFFSET -2.19248 -6.46944 0.0
			CHANNELS 6 Xposition Yposition Zposition Zrotation Xrotation Yrotation 
			JOINT LowerLeg_L
			{
				OFFSET 39.0811 0.0 -1.23785e-05
				CHANNELS 6 Xposition Yposition Zposition Zrotation Xrotation Yrotation 
				JOINT Foot_L
				{
					OFFSET 40.9854 0.0 -1.26872e-05
					CHANNELS 6 Xposition Yposition Zposition Zrotation Xrotation Yrotation 
					JOINT Toes_L
					{
						OFFSET 11.7543 0.0 0.0
						CHANNELS 6 Xposition Yposition Zposition Zrotation Xrotation Yrotation 
						End Site
						{
							OFFSET 0.0 0.0 0.0
						}
					}
				}
			}
		}
		JOINT UpperLeg_R
		{
			OFFSET -2.19251 6.46944 0.0
			CHANNELS 6 Xposition Yposition Zposition Zrotation Xrotation Yrotation 
			JOINT LowerLeg_R
			{
				OFFSET -39.0811 -0.00228153 -0.0401928
				CHANNELS 6 Xposition Yposition Zposition Zrotation Xrotation Yrotation 
				JOINT Foot_R
				{
					OFFSET -40.9854 0.0 0.0
					CHANNELS 6 Xposition Yposition Zposition Zrotation Xrotation Yrotation 
					JOINT Toes_R
					{
						OFFSET -11.7543 0.0 0.0
						CHANNELS 6 Xposition Yposition Zposition Zrotation Xrotation Yrotation 
						End Site
						{
							OFFSET 0.0 0.0 0.0
						}
					}
				}
			}
		}
	}
}
MOTION
Frames:	9
Frame Time:	0.0333333
0.000000 0.000000 0.000000 0.000000 0.000000 -0.000000 -1.380270 92.522400 -1.614280 88.048900 -0.564136 3.209040 15.735700 0.000005 -0.000001 85.153800 86.519700 -84.861900 8.984550 -0.406207 -0.000000 -0.828622 -0.609805 0.579028 16.377300 -0.000001 -0.000001 3.615460 -2.185980 0.719477 6.456720 -0.000001 -0.000000 2.505800 -1.187650 0.776076 12.994200 -0.242716 4.980390 -87.202300 -9.230250 -73.056100 5.348090 -0.000007 -0.000001 -86.117400 -29.940500 -90.684100 24.328600 0.000019 0.000005 15.790200 -1.212530 -94.279600 22.291600 -0.000001 0.000005 21.562500 5.589330 -10.724000 12.994500 -0.242716 -4.980390 90.579600 -1.761530 -71.782400 -5.348130 -0.000001 -0.000004 -75.091800 -25.804700 -97.407500 -24.328900 0.000322 -0.000009 22.119100 0.784141 -88.072300 -22.291500 -0.000108 -0.000004 21.421400 5.320710 -0.516382 -2.192480 -6.469440 -0.000000 -175.166000 -6.456980 -3.600550 39.081100 -0.000007 -0.000012 -0.102326 0.257339 21.684400 40.985400 -0.000006 -0.000013 -0.676703 3.708870 -65.042600 11.754300 -0.000000 0.000003 -0.000030 -0.000362 -16.591700 -2.192510 6.469440 -0.000001 -179.441000 13.474800 178.551000 -39.081100 -0.002282 -0.040193 -0.016804 0.059642 18.648400 -40.985400 0.000008 0.000006 4.321180 7.284100 -64.716300 -11.754300 -0.000006 -0.000006 -0.007833 -0.086665 -20.102000
0.000000 0.000000 0.000000 0.000000 0.000000 -0.000000 -1.406240 92.519300 -1.565760 88.040000 -0.590301 3.202280 15.735700 0.000005 -0.000001 85.341900 86.524200 -85.055600 8.984550 -0.406207 -0.000000 -0.835821 -0.585912 0.568082 16.377300 -0.000001 -0.000001 3.669300 -2.170060 0.685778 6.456720 -0.000001 -0.000000 2.546940 -1.209140 0.789042 12.994200 -0.242716 4.980390 -87.187800 -9.247250 -73.002300 5.348090 -0.000007 -0.000001 -86.022800 -29.951800 -90.791700 24.328600 0.000019 0.000005 15.857000 -1.230510 -94.323600 22.291600 -0.000001 0.000005 21.379200 5.587870 -10.642600 12.994500 -0.242716 -4.980390 90.575500 -1.745300 -71.747300 -5.348130 -0.000001 -0.000004 -74.915100 -25.887600 -97.404600 -24.328900 0.000322 -0.000009 22.069500 0.780445 -88.076600 -22.291500 -0.000108 -0.000004 21.309900 5.319480 -0.481303 -2.192480 -6.469440 -0.000000 -175.125000 -6.506100 -3.576960 39.081100 -0.000007 -0.000012 -0.103568 0.260457 21.684700 40.985400 -0.000006 -0.000013 -0.694781 3.747850 -65.067700 11.754300 -0.000000 0.000003 -0.000036 -0.000428 -16.594300 -2.192510 6.469440 -0.000001 -179.415000 13.432900 178.582000 -39.081100 -0.002282 -0.040193 -0.016089 0.057556 18.638800 -40.985400 0.000008 0.000006 4.360320 7.282950 -64.750900 -11.754300 -0.000006 -0.000006 -0.007578 -0.084551 -20.015700
0.000000 0.000000 0.000000 0.000000 0.000000 -0.000000 -1.426720 92.510700 -1.517910 88.040500 -0.622623 3.223000 15.735700 0.000005 -0.000001 85.411500 86.513400 -85.133700 8.984550 -0.406207 -0.000000 -0.813653 -0.578524 0.551182 16.377300 -0.000001 -0.000001 3.718820 -2.131910 0.658179 6.456720 -0.000001 -0.000000 2.562230 -1.151020 0.776983 12.994200 -0.242716 4.980390 -87.175100 -9.236980 -72.912200 5.348090 -0.000007 -0.000001 -85.949200 -29.978700 -90.862500 24.328600 0.000019 0.000005 15.740300 -1.230960 -94.358800 22.291600 -0.000001 0.000005 21.333000 5.587820 -10.639700 12.994500 -0.242716 -4.980390 90.557000 -1.684010 -71.695700 -5.348130 -0.000001 -0.000004 -74.719600 -25.942400 -97.409900 -24.328900 0.000322 -0.000009 21.851300 0.760225 -88.105800 -22.291500 -0.000108 -0.000004 21.148800 5.321050 -0.526164 -2.192480 -6.469440 -0.000000 -175.119000 -6.395440 -3.518520 39.081100 -0.000007 -0.000012 -0.104322 0.262059 21.706800 40.985400 -0.000006 -0.000013 -0.734588 3.618030 -65.126700 11.754300 -0.000000 0.000003 -0.000031 -0.000375 -16.592200 -2.192510 6.469440 -0.000001 -179.426000 13.457000 178.630000 -39.081100 -0.002282 -0.040193 -0.016528 0.058764 18.666200 -40.985400 0.000008 0.000006 4.336330 7.331380 -64.801400 -11.754300 -0.000006 -0.000006 -0.007826 -0.086610 -20.099700
0.000000 0.000000 0.000000 0.000000 0.000000 -0.000000 -1.443480 92.515900 -1.495440 88.021700 -0.635566 3.173790 15.735700 0.000005 -0.000001 85.411000 86.515200 -85.127600 8.984550 -0.406207 -0.000000 -0.817349 -0.578724 0.562431 16.377300 -0.000001 -0.000001 3.713500 -2.118290 0.650594 6.456720 -0.000001 -0.000000 2.585810 -1.113730 0.703131 12.994200 -0.242716 4.980390 -87.178300 -9.202240 -72.870500 5.348090 -0.000007 -0.000001 -85.954300 -30.080500 -90.912000 24.328600 0.000019 0.000005 15.687800 -1.236060 -94.392100 22.291600 -0.000001 0.000005 21.310000 5.587750 -10.636000 12.994500 -0.242716 -4.980390 90.553800 -1.669270 -71.642500 -5.348130 -0.000001 -0.000004 -74.432300 -26.065300 -97.318600 -24.328900 0.000322 -0.000009 21.791000 0.730380 -88.174600 -22.291500 -0.000108 -0.000004 21.289000 5.319510 -0.481725 -2.192480 -6.469440 -0.000000 -175.087000 -6.433900 -3.540900 39.081100 -0.000007 -0.000012 -0.104899 0.263968 21.672600 40.985400 -0.000006 -0.000013 -0.749742 3.628000 -65.115400 11.754300 -0.000000 0.000003 -0.000032 -0.000383 -16.592500 -2.192510 6.469440 -0.000001 -179.366000 13.440200 178.614000 -39.081100 -0.002282 -0.040193 -0.014273 0.052229 18.619800 -40.985400 0.000008 0.000006 4.474950 7.286910 -64.811500 -11.754300 -0.000006 -0.000006 -0.007801 -0.086398 -20.091100
0.000000 0.000000 0.000000 0.000000 0.000000 -0.000000 -1.450710 92.508100 -1.476060 88.055000 -0.635990 3.148910 15.735700 0.000005 -0.000001 85.319000 86.507300 -85.051100 8.984550 -0.406207 -0.000000 -0.802499 -0.589962 0.531343 16.377300 -0.000001 -0.000001 3.721670 -2.099450 0.620355 6.456720 -0.000001 -0.000000 2.588140 -1.090750 0.718312 12.994200 -0.242716 4.980390 -87.188400 -9.149900 -72.837400 5.348090 -0.000007 -0.000001 -85.871600 -30.208900 -90.865400 24.328600 0.000019 0.000005 15.557300 -1.232890 -94.419400 22.291600 -0.000001 0.000005 21.357500 5.588170 -10.658900 12.994500 -0.242716 -4.980390 90.529100 -1.590230 -71.594800 -5.348130 -0.000001 -0.000004 -74.100300 -26.168700 -97.146600 -24.328900 0.000322 -0.000009 21.520200 0.686240 -88.261100 -22.291500 -0.000108 -0.000004 21.218800 5.319920 -0.493547 -2.192480 -6.469440 -0.000000 -175.112000 -6.425230 -3.559770 39.081100 -0.000007 -0.000012 -0.106993 0.269023 21.688300 40.985400 -0.000006 -0.000013 -0.758148 3.629500 -65.136900 11.754300 -0.000000 0.000003 -0.000039 -0.000458 -16.595400 -2.192510 6.469440 -0.000001 -179.429000 13.450900 178.582000 -39.081100 -0.002282 -0.040193 -0.019375 0.067215 18.659800 -40.985400 0.000008 0.000006 4.263170 7.380360 -64.812600 -11.754300 -0.000006 -0.000006 -0.007689 -0.085473 -20.053300
0.000000 0.000000 0.000000 0.000000 0.000000 -0.000000 -1.458190 92.512100 -1.472820 88.046800 -0.643580 3.135030 15.735700 0.000005 -0.000001 85.182400 86.492200 -84.909300 8.984550 -0.406207 -0.000000 -0.773673 -0.609422 0.541785 16.377300 -0.000001 -0.000001 3.759840 -2.088000 0.587636 6.456720 -0.000001 -0.000000 2.548200 -1.084350 0.702488 12.994200 -0.242716 4.980390 -87.200400 -9.099310 -72.817400 5.348090 -0.000007 -0.000001 -85.770300 -30.376000 -90.512500 24.328600 0.000019 0.000005 15.297900 -1.265900 -94.617700 22.291600 -0.000001 0.000005 21.327400 5.588060 -10.653700 12.994500 -0.242716 -4.980390 90.503000 -1.506800 -71.537900 -5.348130 -0.000001 -0.000004 -73.540600 -26.247000 -96.711200 -24.328900 0.000322 -0.000009 21.185100 0.607915 -88.432800 -22.291500 -0.000108 -0.000004 21.305800 5.319460 -0.480176 -2.192480 -6.469440 -0.000000 -175.103000 -6.482520 -3.558020 39.081100 -0.000007 -0.000012 -0.104691 0.263549 21.664800 40.985400 -0.000006 -0.000013 -0.749448 3.669360 -65.126900 11.754300 -0.000000 0.000003 -0.000030 -0.000360 -16.591600 -2.192510 6.469440 -0.000001 -179.398000 13.433100 178.586000 -39.081100 -0.002282 -0.040193 -0.017840 0.062789 18.627300 -40.985400 0.000008 0.000006 4.326140 7.337580 -64.808100 -11.754300 -0.000006 -0.000006 -0.007558 -0.084387 -20.009000
0.000000 0.000000 0.000000 0.000000 0.000000 -0.000000 -1.457130 92.515400 -1.472390 88.043100 -0.662466 3.054820 15.735700 0.000005 -0.000001 85.088900 86.479000 -84.804600 8.984550 -0.406207 -0.000000 -0.748366 -0.623851 0.564150 16.377300 -0.000001 -0.000001 3.654560 -2.061010 0.564980 6.456720 -0.000001 -0.000000 2.582690 -1.040730 0.674406 12.994200 -0.242716 4.980390 -87.233700 -8.980240 -72.800100 5.348090 -0.000007 -0.000001 -85.358900 -30.660500 -89.693900 24.328600 0.000019 0.000005 14.516000 -1.309680 -95.045100 22.291600 -0.000001 0.000005 21.437700 5.586960 -10.591400 12.994500 -0.242716 -4.980390 90.462800 -1.379750 -71.455400 -5.348130 -0.000001 -0.000004 -72.721900 -26.306900 -95.972300 -24.328900 0.000322 -0.000009 20.503000 0.464186 -88.759800 -22.291500 -0.000108 -0.000004 21.370700 5.316020 -0.381534 -2.192480 -6.469440 -0.000000 -175.108000 -6.427220 -3.608010 39.081100 -0.000007 -0.000012 -0.105996 0.267293 21.631000 40.985400 -0.000006 -0.000013 -0.760964 3.634420 -65.124800 11.754300 -0.000000 0.000003 -0.000037 -0.000435 -16.594500 -2.192510 6.469440 -0.000001 -179.386000 13.454000 178.523000 -39.081100 -0.002282 -0.040193 -0.019111 0.066725 18.584200 -40.985400 0.000008 0.000006 4.256160 7.371320 -64.772900 -11.754300 -0.000006 -0.000006 -0.007543 -0.084259 -20.003700
0.000000 0.000000 0.000000 0.000000 0.000000 -0.000000 -1.446070 92.522200 -1.478600 88.041600 -0.689845 3.046010 15.735700 0.000005 -0.000001 85.219200 86.442500 -84.926800 8.984550 -0.406207 -0.000000 -0.674089 -0.614403 0.580802 16.377300 -0.000001 -0.000001 3.571470 -2.027690 0.573362 6.456720 -0.000001 -0.000000 2.538180 -0.996493 0.680634 12.994200 -0.242716 4.980390 -87.301100 -8.775440 -72.829600 5.348090 -0.000007 -0.000001 -84.214800 -31.078200 -87.944300 24.328600 0.000019 0.000005 13.276500 -1.377120 -95.816700 22.291600 -0.000001 0.000005 21.673400 5.587770 -10.637000 12.994500 -0.242716 -4.980390 90.400100 -1.182660 -71.305400 -5.348130 -0.000001 -0.000004 -71.368600 -26.376700 -94.457400 -24.328900 0.000322 -0.000009 19.296200 0.205716 -89.414100 -22.291500 -0.000108 -0.000004 21.645800 5.317260 -0.417061 -2.192480 -6.469440 -0.000000 -175.118000 -6.490020 -3.607400 39.081100 -0.000007 -0.000012 -0.103500 0.261475 21.595300 40.985400 -0.000006 -0.000013 -0.749969 3.635520 -65.095700 11.754300 -0.000000 0.000003 -0.000032 -0.000384 -16.592600 -2.192510 6.469440 -0.000001 -179.389000 13.435900 178.528000 -39.081100 -0.002282 -0.040193 -0.018576 0.065295 18.541300 -40.985400 0.000008 0.000006 4.293360 7.412850 -64.751500 -11.754300 -0.000006 -0.000006 -0.007570 -0.084483 -20.012900
0.000000 0.000000 0.000000 0.000000 0.000000 -0.000000 -1.434040 92.525200 -1.496170 88.052800 -0.696662 2.969000 15.735700 0.000005 -0.000001 85.187400 86.413000 -84.891900 8.984550 -0.406207 -0.000000 -0.615563 -0.623361 0.587315 16.377300 -0.000001 -0.000001 3.425440 -2.013480 0.580941 6.456720 -0.000001 -0.000000 2.429730 -0.952867 0.725501 12.994200 -0.242716 4.980390 -87.392100 -8.442380 -72.764100 5.348090 -0.000007 -0.000001 -82.073700 -31.382500 -84.919000 24.328600 0.000019 0.000005 11.851500 -1.493460 -97.081500 22.291600 -0.000001 0.000005 22.017300 5.586340 -10.559100 12.994500 -0.242716 -4.980390 90.285900 -0.834226 -71.081400 -5.348130 -0.000001 -0.000004 -69.341500 -26.236800 -91.925000 -24.328900 0.000322 -0.000009 17.507800 -0.200263 -90.636600 -22.291500 -0.000108 -0.000004 22.088100 5.316510 -0.395053 -2.192480 -6.469440 -0.000000 -175.158000 -6.398080 -3.692430 39.081100 -0.000007 -0.000012 -0.104217 0.263515 21.578200 40.985400 -0.000006 -0.000013 -0.762784 3.533160 -65.074400 11.754300 -0.000000 0.000003 -0.000027 -0.000330 -16.590500 -2.192510 6.469440 -0.000001 -179.399000 13.434300 178.445000 -39.081100 -0.002282 -0.040193 -0.021019 0.072668 18.520100 -40.985400 0.000008 0.000006 4.184180 7.436510 -64.708700 -11.754300 -0.000006 -0.000006 -0.007444 -0.083433 -19.970000
